<mxfile host="Electron" agent="Mozilla/5.0 (X11; Linux x86_64) AppleWebKit/537.36 (KHTML, like Gecko) draw.io/24.7.17 Chrome/128.0.6613.36 Electron/32.0.1 Safari/537.36" version="24.7.17">
  <diagram name="Page-1" id="G4toZWYoi_Z-rRvXDjPM">
    <mxGraphModel dx="1368" dy="838" grid="1" gridSize="10" guides="1" tooltips="1" connect="1" arrows="1" fold="1" page="1" pageScale="1" pageWidth="827" pageHeight="1169" math="0" shadow="0">
      <root>
        <mxCell id="0" />
        <mxCell id="1" parent="0" />
        <mxCell id="a-xLIc6W0OkfMX9vDNtI-2" value="&lt;b&gt;Navegador do Cliente&lt;/b&gt;&lt;div&gt;[Google Chrome, Mozilla Firefox, etc.]&lt;/div&gt;&lt;div&gt;&lt;br&gt;&lt;b&gt;Aplicação Angular&lt;/b&gt;&lt;div&gt;&lt;br&gt;&lt;div&gt;[Angular]&lt;/div&gt;&lt;div&gt;&lt;br&gt;&lt;/div&gt;&lt;div&gt;&lt;br&gt;&lt;/div&gt;&lt;div&gt;&lt;br&gt;&lt;/div&gt;&lt;div&gt;&lt;br&gt;&lt;/div&gt;&lt;div&gt;&lt;br&gt;&lt;/div&gt;&lt;div&gt;&lt;b&gt;Interface do usuário para o sistema&lt;/b&gt;&lt;/div&gt;&lt;/div&gt;&lt;/div&gt;" style="html=1;whiteSpace=wrap;" parent="1" vertex="1">
          <mxGeometry x="270" y="270" width="260" height="190" as="geometry" />
        </mxCell>
        <mxCell id="a-xLIc6W0OkfMX9vDNtI-4" value="" style="shape=image;verticalLabelPosition=bottom;labelBackgroundColor=default;verticalAlign=top;aspect=fixed;imageAspect=0;image=data:image/png,iVBORw0KGgoAAAANSUhEUgAAAOEAAADhCAMAAAAJbSJIAAAAz1BMVEX////DAC/dADHQADDdAC/DAC3BACXdAC3cACfCACrAABrcACncACXeETfEETXBACDbABXocILXcIG/ABLbABvhNVDKNU/bABTcACHCACe+AADtw8rlqLK/AA7bAAzytL3++PrjSWDgKkndjJj63+TOSmD30Nb77fDwqrTqgpDIJUTpdob75enz1Nnkoqv0v8briJbumaXZdYTlWGzwp7HVZXbnrrXHH0Dag47naXvlXXHjRl3PABPvnqrUYXLOQ1rSVWnfG0HLAADWNU/hlJ+exoKTAAAL+ElEQVR4nO2deV/iShOF2cISUNDEYXHAiAygwoDbnVGv48x97/f/TG8CBkOqutPdVWz3l+dPR1vOIOd0VS/JZFJSUlJSUlJSUlJSUlJSUlJSUlJSUlJSUhCGt38/ne/6RWyOwfxPs5ZvO9b9dNcvZRNM3vq9WimXy2ezVrF7fDXY9QvixRtfui1fXm6h0MeqO1++j3b9stiYvTTcUiGXiyj0qdQ73/7ydv3aGBjelt1yKC+q0Kdt278O3HcG86NmLSIvptD/a207lcP1Hd9bmrVSLsa6wkBk0ckeou/43tJsAXmYwoXvdA/Md7zZSw+VJ1C49J33g/Gd4UnVreLyxAoDkYfhO9N5rlEuCPXJFAYfSdu5H+5agozJXb9Rk8lLULj0nb2d73jjV+GHT13h0ndu/t073/FmD66CPCWFwUey7uyX7wxva2414a9TS2Eg0nb2xXem84LcW8wUBvMd2979fGd0149Py9gUZpd11s8d+s5ofKbiLQSF2YXv/NiR7yh7yzpVTYXZHfnO+Ymr7C1rtMZ1fYmB73R+zbYnb3B9pOMtUUqXmW9tE4nZbNEpnm5lvuPPW3p63hKlOcucO2YKl3XWzw2b6+jxrGHy4Vu9hX1/kJuKqcRFf2eTvnPxQJLn4479Yb7a5gqzyzrrq7cBeefPht4SoVBbDFW3SBID3+n+nvGKnJp7S5TWfDHalZGdruHPd4qnbJO6yd0R0m8xeQvd5SdoZFPfxIXIomNfMfjO6PGV+uFbUT75GPS0yKAwy1FneRcP+tMyMb1whjno8CjMLn3nu2escNgT91v0qV6uBn4nBAYU2TGfCIx6jAJzjU9nME99jO7EWGHGpfvnikXah1BSH9AxF5j5w/chXKZ9CDH117DaBIUPfJ/DQnVtZHLqf9L+TVB4UmNT2LpbG5kh9VcKnwgK71pcAsO0D+FJ/QX1K4LCCzaFtZPY0Fypn83afxEUnrtcCnvxftKgy6aQUvxPGkwCqw9gbNNaH0CJw8zIvJpfpwHrALbUd0gz0yMehWtpH/KDJ/WtLEVg5own8t0LZGym1Ld+kBS+sER+IYcOXmEJjMo7SeGcJfJjaR/Ck/rFnySFbxyBWGh46OCjLsebSAr8TGbGEYi1W8HoTxypT4pDvwbmCMSmKLBYUt+mNcI5amAk7UM4Ur9LXH1r0AOxKf5P5kh9Sv0bQK+B0bQPOSZ7jVUkKrwkK0TTPoSe+sQ4zGSey9S38Eg6Pjn1SRV+wJwaiIK0DyGnPjHwM5kxUaEo7UNG1MCofyUqpEZ+7TrhF1BrfVKFHzCgRX6hkVSeTomB4VA3o4xoTWFJ2ocQU9+hVPgLaKuiPZD24/gXaKlvFT2qQlLkl87iw43+AT0HUq1PrPADLik1MEz7u3/+jX+JlPqVL2SF14QaGEn7o/wx+FqRkPrFe7JCStu79RYfbdbIO6DtRkn9OjXwM5kL80AstLz4aJfVfPtb/Isjx/xNJMehXwObK4RpP+nl8tkO8HdC6tv0DRmDprHCHpDif6jzyB8WodZ36LsxPONJTfUFjOWHaz5rVbz4P5iv63fBWPoYt71hbT92Fzto4WfHOPWtOl1g5tUw8kuvYKj+8gxp5Qb8i+m6PkMcmre9G6DLNwzaWsEu6C748JimPjRmAwwjvwQ7+Yt+QaCweAr+zXBJGBlJH8O2N0z7ZZkSKLRsMDk1TP36dwaFZpFfKHvxgZazo8Ve/TqYnBqu69vUCj9gahQXSG1/VFoptODk1Cz1GeLQdKW7B/4OZ8txluct4OTUbDcfucJfYFLll0Hah7uPlgqRHqBJrW/ZHofCnIHCJvjrmXzM/j7OzMDtBSapzxL4RpGPpH241vqhEKl6DFK/QlvhDjnRb3vDtF/1ez4UIssNBqnf5ohDk5Xu0h8wyCpzwpNdSGGnX+szVPgB+m1vmPafmzpChciMUj/1WQLfoO1dqHnxMaarldbV6Tw4OdWv9Rnq38Wr0w3Ej2MVUT4/yyuFyJRSe13f4TnqpVsDFxog7b3WKnFWCpHJqXatz1H/Bi+voBeI5WcwRGT2/nmGFPkQaaY+U+Brb/2Caf8xJY0pRCanmqmPlNJm6LW9kbQ/j/ydR84Bw8mpZoefvMIdcqsViEjaRzfERxQik1O91Cft8I6i1fZG0n7SwG9RspCVMa11fVhmGqIV+a1H8PNrewGip9WRLWlaqc8U+Hpbvwou/Pm18iuq0LLB9450ykSmONRreyNpv94GWbtxAJmc6tT6LBV+gKe+uS1+rCJgvfpaU4iYoU7qd9nOPKtX+UjaT3ulKPlKlA58FzRSn7ql7ZO+cuSDYxW+z/TPovzvS5QbWAirpz7DCnfIs2rkRw5RmqOc+u1fDL9tiXLbG0l7fZRTn6XhvUS17S3daKmOauqzBb56DeyCzTJGqKY+wwp3iGLkxw5RGqO6h5+pwl/8SrXIR9LeDMXU54vDxeq0wluIpL0ZU6XUR5oE5iht/SrHD1Gao5T6SAVtjlLbG0l7U5RSn2WFO0Rlt7fCRkt1VDr85B3eUVR2eyOHKM1RSX3igad1HpMVIrU9BYXz+oyBr3TimSntQxRSnzEOVdregkOUxiis67PVv4vfl1gDJxyr0Cc59UlnuAFJNXCh53H+uozKuj5f/RuQFPnYIcrSEUb+GCGLtHaTdvORrjSBJF1y0oRpf9EoYOQtjA78+aTUZ43DxEtOsLQXzIPw2z2x00sJqc/W8F6S0PZuQuMWtSBxhVbbAyMkpD5r4CddcoLV9qLOh+CGVqyalac+Y/0bII987BCl6EYN0a3zyDRanvrEM9xxpFu/sLQX7vcT3bKLHFiWpz5vHGZGLUkgYmkvrLdECjGvkaY+7UoTiGS3d8H1wLcPhJMgkUKrjowiqfUZ28FLJCvdWNqLO6zCu6Ax55DU+sQrTSCS3d5I2mfEV4EKFWJeI0l9thXuEPHWLyztJfuKxfd5Y3tFxR1+8gnnOOK2N3ZlgqSvI1aIvWZx6jMHvqTtDQ9RynxGphDzGnGHnznwJW1vLO1lKzmSW+exFy1MfbYV7hBRDVwoIN8sayBLFGJeI+zwU680gQguOcHSXnp+QfbkAMxrRLv5eOvfALwGRg5RJvSPZQqxDbGC1CdfaQLBLznBrkyQ+UzCs4KwnXh46rPHoajtDQ9RJq0YS59vgXkNnvrMFX4A2vbG0t4rSbtWUoXoUgR6Sw974Au2fmFpn3BOSv6MEswh0dQnX2kCwSIfS/uk3ahyhejmeyz12QMfv+QES3u5zyQptBzkV2Opz3PgaQ3kkhPkEGXyzpSEJ+lg7w12Sw/9ShMInKggGy2T70JJUIh6zT1IfXQOSwVGfvX5BPCQtJaa9DSk+tNpnPvfoIZir/ADkN3e1TIgcX9Y4vOeihBYJLKucIfo7fY2V6gE04GndR55HpTAorDS4Vz/XTG47DHcucug0HK+bOqZSOd9+sMSyAotO7vJp3eNa7LW8BYUWnWHa4O+iHmL5jg0hW3np7dhgf4M44RkORSFle7vDUxlEAaXTXPLMVdodTdmMJBh3zXVaKrQso+3+HhAn4uCoeWYKbTqbCeA1LkzsxwjhcVtGAxkdGtiOQYKK52n7RgMZPKgbznaCq3u+y4fmTvsNzQ1air0DWbXzz2+ONKzHL3nAdeL2zcYyJ2r8yQTHYXF7k4MBuLdNtUvB1FX2O487c8T1jUsR/nJ4877Dh9XjTA8U7QcNYWW/WPXBgO5OFIqHlUU+gbD39Lm4M1VsFUFhcXulbdrLQK8azfRchIVtrt7ZDCQyUtSLyepI9zdM4OBJFmOVKFl3+yfwUBmUsuRKLTq7f00GMibpF8l2TFkc28C2iDedUNkOSKF7e7pPhsMZCSyHFxhpftt3w0GMn1FLQdTaDkHYTAQ1HKgQqte4V+y3haPVWA5QGHd3sgqy7bw5r2yVGG7c39YBgMZPTclt7dsq4m9WaavUY1r90TdcG+h3BWzPy525172cA0G8mk5ocIDNxiIN3drEYXt7r2365fEjm851Q+F/xGDgSw2AuQDg9llE3uznPfd/LZXybbNuLQPTeyUlJSUlJSUlJSUlJSUlJTD4/8KqSe6g9MMlwAAAABJRU5ErkJggg==;" parent="1" vertex="1">
          <mxGeometry x="378" y="380" width="44" height="44" as="geometry" />
        </mxCell>
        <mxCell id="a-xLIc6W0OkfMX9vDNtI-8" value="&lt;b&gt;Servidor da Aplicação&lt;/b&gt;&lt;div&gt;[Node.js e Nest.js]&lt;/div&gt;&lt;div&gt;&lt;br&gt;&lt;b&gt;Aplicação Nest.js&lt;/b&gt;&lt;div&gt;&lt;br&gt;&lt;div&gt;[Node.js e Nest.js]&lt;/div&gt;&lt;div&gt;&lt;br&gt;&lt;/div&gt;&lt;div&gt;&lt;br&gt;&lt;/div&gt;&lt;div&gt;&lt;br&gt;&lt;/div&gt;&lt;div&gt;&lt;br&gt;&lt;/div&gt;&lt;div&gt;&lt;br&gt;&lt;/div&gt;&lt;div&gt;&lt;b&gt;Lida com a lógica de negócio e API&lt;/b&gt;&lt;/div&gt;&lt;/div&gt;&lt;/div&gt;" style="html=1;whiteSpace=wrap;" parent="1" vertex="1">
          <mxGeometry x="695" y="270" width="260" height="190" as="geometry" />
        </mxCell>
        <mxCell id="a-xLIc6W0OkfMX9vDNtI-11" value="" style="shape=image;verticalLabelPosition=bottom;labelBackgroundColor=default;verticalAlign=top;aspect=fixed;imageAspect=0;image=data:image/png,iVBORw0KGgoAAAANSUhEUgAAAOEAAADhCAMAAAAJbSJIAAAAkFBMVEUbGxvgI07kI08AGxjnI1DfI04AGxYZGxsXGxoVGxrbI00OGxkGGxgSGxnqI1EcGxvVI0tZHirLIkmpIUCjIT5lHi1wHzCuIUDAIka5IkS1IkMjHB0nHB92HzLFIkdDHSUtHB+RIDlQHSiMIDgzHCGCHzVAHSRJHSZ8HzNyHzFWHSloHy6HIDY5HSOaIDzyJFR+sb2zAAAL00lEQVR4nO2d6ZqiOhCGIQkJIQEBNxB3cV/O/d/dAVQabMVlCNA+ef/09BnnyGeSSlWlUiqKRCKRSCQSiUQikUgkEolEIpFIJBKJRCKRSCSS5xDKuUnqfgqB6OG8N3KGmNb9IMKgcxcBZPQn/DyO5PuGk61cVVORMUqmKgla7Os08q6lRoBDPIqm4/YU/m0asQcSiRscjWjvP8vdQLPuZyoX3ksUqvZUV/jCiqbseAK/ahhJmAhUwYgTMk7+ZCz1rzKuzE0UoiVkznk4VdQ/srofq0QShZrlU6qMLwqjYVzDup+rNEhgxJIWkMI2UlNAl9f9ZGVB10ADdpdx1lGzGF8jEZ8AcFeQ7zyUU6ja8+9Yi3qgATeE+kkDeYEqcOlXbBrRFmgf4XB8M4CJxDau++lKgLRctIfB+HYAz5uG8wXzlE6AR832nRGMB9FT/sA8bd35Uwbm/LfBDtDuKtTQvuGDSKjJcAZG9dsxYd3/Qty5P4TxIP76Bw2B6CbHmE9Xu/2s0+m0I6Ifh+78GEAMecZG0pUFp/bdVZhI7DZxEHUG+dQZnfyxisANyPD8WW8dwGtyhigunj/SF9maTvOcN8pDZ+bbKojUqdrN+op+j3VqbnszH/IknGdLs/twCKNtf9iwaUpxOLMTcYUAYKl2e9/CVCHDwHn8aq1h09TEkzZ4ZDV+z0DL6EwgpnRlF3wWJ3zXBtcCxfPBs8G7fX40XoaYuwWv8Brj1xC+6qjv6UsUALvtDIoWYlMyGrq5sV+en3nQg/3+8hE0JIXK2OBDfU/1h3rd4mL4xC4ciH9ROGlCUgo6j72Sr1DIBQpU0ap+hXxnCNMXKRym69CsaUWyo7gBjNDSoxo+mtYynHwtcgRV1U1dbzzokxpGEe4ErsEI0E99GuzVEGkQLNLIJAoPV4WE25nfKoLijaBd8If5de3R0IoEr6sMNXR49C3B+sA4zQfwJYrPM46VHS5SPFwYYmdoBFr8LMN+/G5ooFRibXTGjgdXuD5VNdbXSaoPzwsCLERbG6KbEAb7tiF6gsagdno6w7aXNzSEHmcQjs1wN/M1Cwk3MWqcw1hfV93leFiNlyYWF08xfeQbFkIVTM8EdEqHkG/T6AzNhG0ZfD1+M0vxjxjB1arouZMNUc446/46ABNLUoByBi8zbw0GYjLhbFetvsjMpFaTHnPOL+qJOB4mQRW7Q1aGp1/nKME3p29uIGBTxDNBiZiHAsPraiP8dPPeGUegPEhBUlMAYBymGwVf/vrruICqZNijMz4xoHGQ+p949Pvvwan0QcSnKlchmrF0iuLDvXcGrbIHEberU2i5TproZnr7rnuYcQbKUliUeS8TgOxZcPU8dTj3Hxg4Iyx5269olgJgz474MgEJDx4HaKjsGIOuRSsEyLKMfk+/6qOYb4uOQtyyz07hRqxAY9BZriFMSqCJziCczIoDNDQqeRAJ+70rlQiwR2sKMYzA0Dx2F97Tc2Sv7DiRsJ5IzzsS5I699mIxG3hjG7wSxOzKTtkQOPHFKUxEAoAQekld/PITLP0AnFa5Kz7HEHA3g4+qdb+LQdvyMzaFZROVAwYC0m684hiqGE1AmKhXHQcXYokoJzKnn5ZcCAB1RGQzWDioLJv4FHcoIsVPyWj8662SwsPKBWpgLuSchnC4T2dqskcjO3JHPG/savEvFSq1loLuZJhzpBqLRKXfWe5ChUfeZOxTsuG6e+rbwKoo5SFkv0gU7pDqbCwtCkMx5qaeFmYRnUZRgRmO+rZVxVACNxBzhmHurBM+WBrY3P0ICWUs7PniTxejlTgXk+Cnaz+ABwv4jx1DncP1yRC+sQAh2e/4Gkik4GDZq0JLFp8Sa4I1CsgqXjUq/PDf06NKgrngk3DgiyvOoM72hQmi81VfqERXYOECfc0npGwrsORGA9P6C2wJPvrCJGqNKM5UKJ+JKmtoym0FAveiyvsebMnVI6yKWNx28S5wLkYi6DRFocLXQlI8TbpJyyci1mKm/rR+uCMgpAKDBilU7p/mfpNCBXZKlyjSMf0AvXX/Vvq/KGzWGCpscnur9J8VNsnSxLBlyf5bk3aLBMJLzpk3aMe/wAou/X6HwhYuNyLOVGg2BXNepq1pSvSUAz5o8/GZwmZEwHlYQQuF9xU2IYtxC2ElFpABt4nNpFi3vD0R+HWE+ESnhQ2eSKu8SBHMqleocyVchQEvMAC4PAe8BlMKWwfXUA27s368QEzntm/Zx+nGn3tRFUH4SLWSni0IPT6eJTA/TUF//+HKBOOKm50S9lNUX3SjFeb9GrRcfdpwouplCDM3W8Dp3ptTzvS4kjM/K3etD/0cVPEypNlc0902XeZ61p1Cna5zz2lP2WdJKq30UugnZCdftBXnVkiyfxA2tiytM+RK9vIGaMMPFYJ+tfu9HmRvXy1zPr85jwslWTeuYAC2g7PG0+oy/s4O6afFLlbF7dxYxiJqwMmZUnwKoiE0z02RVS3Met/2kHDv9e0C9NKiek1IwdBjsreTNJArIdADo0UUOLo8GvAylf9x6dYbCjWwW17ep/IcDcuW1+ZLCPhGDQgNflZbZh1aK0rYG7PUDnYXhVbVjSNZdpfLfb56YBtDev9SSuw7kzcsDfBgeFYI3KrDe54rkQb7n/eHS2QMf12xu7wuWrDEfF0hmmH98i+XVXvdNxKM3XW/oKGt2soDgX0Yj/HLAmNfG57nuF158MtGee9S28LzOol7WxoPst1a7L7SN1rc2CGFiV1C1Z+N0uON/4x8B2PO4P7x854vg7LXPe94zM8L2jhWn6HBtxYRWG571O0WNO/0kkptvnhZYbTJt5I7EZU73YnC3/fbnlTWaueeCez1myqxJ5oorGMIH9xvKziLuVhDfWq/GlsknmicI7AOtaSg3ryGiS57Jtu9HB7Gm3wrVlhTO0Xzra5YaHB5SvjyJQ5gYJIoRPuasoivP2sscHheSUR5+dwUxKY3Umj166oT0qcvu9DIvwhUzNc72hlJm0jc1ta1fVELm7xoM5BvXm0hvO/tpPz8H8E594MHdewUV/j8pTat0bOm1e9BYWAB3J9o2bhsLgdB9esvoePj81NeYGx/TCFeFL9+kkZa1/Rdq/yWES9DWehsntoN4K1+SuD14rgCnGA6h43r6qtvBM2db6vP7swAe2lm7AQvrl1wg/lVYfltFN6HDHvuEw8TqadptpMVDQuHEHXx4apQxG3DtyEcOx56aBqBZc9aOPecsF9gSDW0gPC6/6CG1MoSZs5nrnY7VeN288jwR1OeHwe4LZrTwGvRSyO6OHvRlNNeYkJlfvBtcI0rzj9tf7k2b/RFIWVhXa0RmulxqthGdO9CKIbT7rId9w5Q7bHfP23nQ4h/nZsSWOiqgx5W+OW7L4C4Jm2fQhjEGMMoxI9/8runwsXeDDjAVhRYnReh35DG5b8hj5+M8E2R4UUdThTeO38GdnVNPUuEb9ONIrJCt/4s6sd9kvg5B1v1KVo5wN5VIADjTfdGIfAVmp7XNXARPofgUaxJUy3Lna0hvjnJR2Mahx4wuYqLRN2FFQnlJyv+Dg9tvFhhTPFNJdgltiIktjPIq6tV+T/AJr6FjHFnf6ScxibnRmA/SILHpB8k8OppVP5PUGfQX3ZXCjx3ZeO9/CIEHZL8dwIjfwC44R80o+Roxl9vddlHYP4eBgCLi+vKe1Ys8C+a0VyAB+e56ALY10Mr0nIjizP9kwKz8HwaGXnHaxQIlwj50z84RfNwJx8fLlppD/ajjdrB3zMyN8BuViByuz/RMe5YM/j3tokb8Da7AtWZ8rPomGNsBba1rgYKM4dVAPlhRhGZdo4N+rauz+BhP9MExu+yXH3KfPjXlyCBTppYBep4r9zsCk39aseXofBw7ScRzc8ur7hOVDgEr7xz9Ass4zTBf35Xv4Hw4Pz9xgjZ7W4A//qCu4Uwc+8CgIDqdvYhE9D7sGb0luNbluG1t7sWZN82fBH6atOe7SdD+CD99gUQngmcvpS/7qlIJBKJRCKRSCQSiUQikUgkEolEIpFIJBKJpFb+B7yevSekK9OjAAAAAElFTkSuQmCC;" parent="1" vertex="1">
          <mxGeometry x="838" y="380" width="44" height="44" as="geometry" />
        </mxCell>
        <mxCell id="a-xLIc6W0OkfMX9vDNtI-12" value="" style="shape=image;verticalLabelPosition=bottom;labelBackgroundColor=default;verticalAlign=top;aspect=fixed;imageAspect=0;image=data:image/png,iVBORw0KGgoAAAANSUhEUgAAAQMAAADCCAMAAAB6zFdcAAAA/1BMVEX///9AQjeCzSpAQjX///3//v9AQTg+QDX9//7///u2trTr6+X8/PwxMyYxNCVAQjQ1NywpKiKgoZz7//Lh9cfh9M7z8/L///d7zB602oCBzih+xhzU7bSXyVh8xyP/+//3/eg6OzSOyUSKxTiExChJS0ItMCAxMimur6nj5N9kZV/NzczS66uVyEo4Oi1yc2x+f3ra29eMjYhXWFDz/e6lpqHM4rfs/+i73Zeiz2TJ5pnDxL/v+9uq1IF9zQm52YmhzGyezmGs0XTU6bXD4aDM66KJvT2/4oaCvR8cHhCi2GaHxUzh79GIiYNQUkbb9rnX182QvkUiJRCp2W8JDgCEn19CAAANj0lEQVR4nO2cDXuayBbHQWaUiRhFxEGIgIqSNGpqXq5JpTFp0m53227b3fv9P8s9gzFCBGO6bbPP7fk/T3cbA87Mb87bvOxKEgqFQqFQKBQKhUKhUCgUCoVCoVAoFAqFQqFQKBQKhUKhUCgUCoVCoVAoFAqFQqFQKBQKhUKhUL+8NE38oc/djWeVRupnTNKeuxvPKlrWw/4OIeS5O/KcKodKKTyZPHc3nlXlSlVRSvrRwXN35BlV3lWKsiyPK8flXzYs3DGQ5Vp4xn5RCPcM5GLYb/6aprBiICuDnefuzfNoxUBRdnd+eTuQK7+8HSADZIAMkAEySDLYRQbIABkgA2SAeeH/h8HdpujTt0Z/JAOy6tnTOkZIvOdPtt7UIRReoR6lVOVs67bgcU2D/m0fD8TjW349JYwzTWWcM4mr8U9PnB3C9uuTrckxDsMxzP9E0CLdvikYPRP/Lle2ZcDY4bYbryqB0TN1et6+eHVKKfxV3bZfkoCtSbNiZawfN6WtNjRU1aM8eu1eBvNIItvZDtWIdPBi0J8Biq3sQBMWvdPRoVexlT4mJlFPNW57VsFyRjecet6TIEiTF3pRVpRabWeb1iTCyXQe2IVCwe29Ot2qJfja5rE+lov6i8l2dgBvfHkRFuVSLdwn0uMnc4xK/l47cAuOU7Cdq4axnYGSmLbUfFkpFUGyrIQnh1J+MCFxU5RIfNh2LcHAAuZ7MANUhVmjGzu63wllBVoZV47Pxptj4iIENF/qpbuN17hXWla3xGciOFFGiXkVQH+uzMbIsa1gPhXk4nCyIaSISKgxdrY7XnZIVqr6UZnlGYPKGNOYxkVjhVi2bbvulalBLFJVNa8p+L7DfkVZtjFetZfDgEHX6oPVY6XB0YH4NBsXg/Ez1Z9Dp9wPQ4MwHzzCtrp7Bidgs+ASjxjErB+WlBUDudTR680ccgQYeNK0FTixESxlua3IkzYFoYMjPdFISjm5cdavpR4bh9CrbBGiMskY9txC0DufqpRrlJutnm077T0OcQhCZb6BxlEqLD7sVbFW3JGybIFBMlSBsWPbYAZLCmAKttUbGtyjLLMRwo4rY4g22QzW40FTg/hUqaYfg2AV92odADiixxvX4JtBK4LsQES6pqxxDRMVvIk41SB55TIQUUpZ6xt8UBIOSNfaE1Fn2HXE4JNmYMMPrjX6bLAsBhLZ6dRK2ePPZiACwTjjyVIl45gWGDAevQlsy7k2BSKoCzjxwF75zcgpWMF5ZFApu2MwzWy/VlOUNQjxzyX9ZTnlEESkHta4ChZjfsjALtjBlckpTMLqnZji4Um4sK4cBmu+QM7CmlJae17kLegVuOnD2Hg6h04FoxtDoiI6ExEiGUQCFifKYPTWz44HkNQP/6zkzw444G49Oa8iGJrznp0cfFqW824eEcpXvgcIykeDDTawzkAT8SnPbQBEJzxjqYKE8rdfXZiA3/zVlNFlZiNRC1zEaTe4yBBrDJpH+ubOKXKtc5hAIAFV17JyERRsaO3rHkswgNiud+SnMCAHolCRcxnIxWIoqqzE3Jw7l45zFSXDF1kI/METYQGMZE/Kyipn+uauCZX691Uj1N+N9/njv6NQKDiRtzIeBgE3zwWyGbB+Z9Ozxdghfk9Wz1PIgtem4WlMuq8DqAjE2oIC5Tfdgt3m4PprDI5r+bCXqsr3cFXK9tx8P1jZgqmtAkJZf5TAAwZNPTd/LBlUlUrSEBqB/QesDkhsfvfeIBZOJF5GgedE3csPflZmqNeSjYnAKBJ4qs9KqZhgQIABRIMNHOLa2UzQLuvp8dwF4DSYhwzkVLeKRahgU1gUwWDhb2LIDddqiRkn1NNu9j5CqUCNRuu63b5+8+ojh9pNo8a13fM1tl7BHdeSCaEK3l88gWIp1emSnGLgPGoGUKebiWSyzmCsQ5pMf7j7kEHqhepAFvd2Uh/uLu1gyWBRAjH/vdWDuAWVsgUVi2W5wVUEIZoabWDgMXUtQaYZyDUow8jhye4PZdDRP5XP9NqWDMAyi6Eyg/yVLuNWvpBmQPye3eXM7F3aTtDrBrBmsK58qKNzGdSTDOJqAB5h+6Vkhfp9GZTEipEsVkKJQeUzKNU6Z3FK2+8kHTePAfV7Vpfz60t3dBP5p1PzPLCcVxqXchmcJRiU/pxA1NRgoQKVY6Jo+K4MavKMiTUakSYnycLkAYMVHWUXJkbyI0PSmse7CTZ/fclhEFgjAv/ofdY8WEV5xjy4HBlePoN7O4CIMygnfnGUWK0lGJB/xqA6Pk60sT/O2T9IMtjdlzwj+hsqHBjHLFx+PNbvv2mNAfhC1Lt811DFlp3HzXfOu8jbwheKSrWS+JzUsxmwf8ggmdC08iCXwWq+BxNq3AZQlsHCh03iX4hqGRxq2as1BoUu8d9ZwWhoRgZYNfv4cWrw7RjUUr/48QykJIO13JhgEL2Deh/WPQ1pMog7VCnOFmVgHgPG5u6lBTFxdNEamr60MS/kMKD/HgbhRIp6cTkSmNIBMCiJPQQSLw1ZHgNO/XlvUcgAifb5lG7pCz+egbLGYOX2eQz0L5LfixelToNMKndLWYjc+QzsrkEhDMzb3UA4EejiVNsmNyrV8GczONBXuS7fF75I069iQu334Au/L/YUU7pnIN0zgJKZUW6cRo2bV1c9qFv3pH8LA7m6m7KDMJfBKi+AHfBG27Xc0dAnzeP99Q32LAY3b15/VInmUSqp0bXtzreqkVIMflBMLFbFVczFt0HaOgjlxxmEdcljxvD6PGKwBsra7M5i8PrSmUNa5KrY+fzNdlvb5IWfwUAse2r1+y/bLyb2FHLrAzk8mkieBoMRh0ZrALIZkBunMDI1SVUppf4ftnv+dF9IMyh+pxopXvp1OjvxFs9yc+0xBkqxM/jUlJhG87bts+wg6hWs3vlNI4rM4ci2e+ZdbgSM3xYP+isG0j9eLyhKCPXNwcP9q3w7AI1rD7bOMhnwuGZY5EZ1rweZ0QkgMUCKDG45YWLtHFHyzQyWG2PfgUFJLnXCF7VxNb1rvmntDC/FW2c5RyQxA8eai/MtwmIGhiaZF4ET50VxBCZOG3jb6kZZh1Rb+ULSDqQtGbA8BrFTVJXqAwa5uXHZCf3FgZR98HXHoMVUMVcLOyAeMaKb81arNd8zDZVwWHSMrK4vsfUDoCSDdI20WqJ9ky9sYhC3WNy4j7S2AwtrhPA4+4gJGJAI1olzn98zEMfPdNFjTeylEWbOXbCPrLBaXxwtQK+KemJJR6WJ3lnuZyUYgK2ZvY2jj09erK9+4lgr9u70lt2KwaLtkvJXsvQh/drajh4Ex1pH/PeQa7cxxI/GBdh8e2h4TJs6wg6EVwAGxqFK5kw6HX4NLoM5yTo9XDKoCodLWJoGUWt52Jm0A07UxoWzPGnNYCD+BG9MiEGr75oV07tV6fkVgiVAalTNl+HDzbZYu/0ZyQ6O/pU4U7tonE7/LrjXMOrl2QJjnPG9EcSG9+dG1pvLPdVarc5S3qaB+UD2Kq4xYJ5q3MRbdYWsgxa7YFnXDaZ5SQasWdc7OXvLovnSX+I4OYFAE0eNeha2UuVF5n8PST3j88i1oZqE9ZXzVnhi/IUAQJWiK8squBdmzsWS2A5q+qdy1i/FEeGaLzAIN9PznmNbmXvL1oe3vkc978ERL+TCTtaYoPVi2D9MGSiL7ZWA9ayfywiTOc6I7arBPf/VO+vSKbiXo9V8a1Sdzt87tgu5QTKyD8QFg4FAm3EsTWECxVFxggEnosgAW4gyz9tsKMx9SqGWeXD5Q9w8OBlkMaiOO/viJGT1fJzB47ORei3zzPW/WRNGwPaof9sOeu35qbfKo/7brmXZvVufEjW7zITwv1ucbbqbABM47mvJLRsItQCMNS6C+JTVXrhAAH8Tlz8ETXX5ZLqXO51dJRnoRKQsDUSwp6ncv7pQ13wprEdZPS8vzsIzEIhdV+H7fmSoquFzT2Nc8zj0Mt6BWsxx9jhnFajfN10+0tjhn0cZn3NyOhw5K1uw4zPfHNKLb4pvIiV3hmFARxOWf8mIirAwSN3aqIHVrN8GSL1EjZv2+1bEPMqiN0HBhUAJtrmhY6JvG68PaZnXf8RblPu3vctFiggKltO7NeKF3aZ2UufPSqV/mH2z5l5gTbP+8lxBXBaDGdt83UkymPnVgcXC7am4lWO73SGPc+TGl75NEBvhm6PX7gKCE7SmKueP9E9EuuVRf2kcnm2enDtpZ+HitKOUE7rXuhbB4C+D0SiI78uJHLcJ9CO3teInsn8Nn4vQxz9fOyIUXptguTQv6izfEQsfvl+Lk03lU8Y9igxBZC5/glIFsuKBsAHyyI1VcWGOm1euOGiDCB2vN6X8e2LfRXzYDdo3Bsm+6JIlCAsVPTvN52lypJ/MHn/sXpTvtd3eVeNHeEBWc9Lp1De4tu0FX3HucVCfbXcTdilGmiz3qmCGoEbzo+iUed4TGvl2iUtvUBFlXHLJ0zf83z+0rdxm1QKsG6m4K/q0a7rfLBEbF4Xd0957EgjyWBR4qPjeOgSsn8Mgvh0PgfeJk/u055/KwBPFJn2CbaJQKBQKhUKhUCgUCoVCoVAoFAqFQqFQKBQKhUKhUCgUCoVCoVAoFAqFQqFQKBQKhUKhUCjUT9P/AKozXD/BpZetAAAAAElFTkSuQmCC;" parent="1" vertex="1">
          <mxGeometry x="768" y="380" width="60.08" height="45" as="geometry" />
        </mxCell>
        <mxCell id="a-xLIc6W0OkfMX9vDNtI-13" value="&lt;b&gt;Servidor de Base de Dados&lt;/b&gt;&lt;div&gt;[PostgreSQL]&lt;/div&gt;&lt;div&gt;&lt;br&gt;&lt;b&gt;Base de Dados&lt;/b&gt;&lt;div&gt;&lt;br&gt;&lt;div&gt;[SQL Database]&lt;/div&gt;&lt;div&gt;&lt;br&gt;&lt;/div&gt;&lt;div&gt;&lt;br&gt;&lt;/div&gt;&lt;div&gt;&lt;br&gt;&lt;/div&gt;&lt;div&gt;&lt;br&gt;&lt;/div&gt;&lt;div&gt;&lt;br&gt;&lt;/div&gt;&lt;div&gt;&lt;b&gt;Armazena dados da aplicação&lt;/b&gt;&lt;/div&gt;&lt;/div&gt;&lt;/div&gt;" style="html=1;whiteSpace=wrap;" parent="1" vertex="1">
          <mxGeometry x="1105" y="270" width="260" height="190" as="geometry" />
        </mxCell>
        <mxCell id="a-xLIc6W0OkfMX9vDNtI-16" value="" style="shape=image;verticalLabelPosition=bottom;labelBackgroundColor=default;verticalAlign=top;aspect=fixed;imageAspect=0;image=data:image/png,iVBORw0KGgoAAAANSUhEUgAAASwAAACoCAMAAABt9SM9AAAAsVBMVEX///8xYZMAAABzjq8tXpE0NDQgV43b4+sASYYJT4kZVIslWo5iY2QUUoooW48hWI2zwdL3+fusvM+mp6jn6OmUlZaSp8Dt8fWKioqfoKDh5+6ztLVAa5nz9PSKobx7fHyesMbEz9w9PT3AwMGRkpJxcnIrLCze3t/IycrU1dVZWlojIyNDQ0MNDQ3S2+VJcZ0aGhpfgKa9ythbXFx7lbRpiKyCg4NNTk4AQYJTeaJ3kbGi+QpZAAAK00lEQVR4nO2ca2OiOhCGxwgoKCqINxS8V/GuxVr7/3/YmYS7bbfb3dOyu87zYSsRJbxOJjOTsAAEQRAEQRAEQRAEQRAEQRAEQRAEQRAEQRAEQRAEQRAEQRAEQRAEQRAEQRAE8TdiLRYLK+9O/CE4C89bWEaqxVpO+/3lApu82YqFHKrNO1fMaVYjMbar7pSrsZxHLUwO/qxlWd6KV5t+3h3OD2MoJHhYVaubQ/Cyu+F/LsNu96mKWq2anhOeu+hzXQ/LfLucG0u8+cd+PLas6Uwo1VpkzjLs3Xi8s8Uw7aN+82/u5Z9BHw2HK9UZN8zGeNfhbU5z7vCWkeu75o4LtCs8q5quq/reLeFhE43LybXbuYB21UJd2gVVVxRFU9X6sS3kGV9VvV6pVBRd3Y9QwpNUKyBSRd2f8AMbdrg/Ry+0MtW6VIiQ6s8NMI56qkXRfQOblPBQv6J4F7Y1Pv76f4oW2wC4aiGNNoLOoJJpKtQrDTxPC49qtR3AhlXz7v03w5gHp6xW0h5gUCvcIKkuqqXHRztwGFt8fIF/iD67gFGTMrJoJXCVW614+xHAj96QlA7MWS/v/n8rc9aEUVaZ2gvs1NdSIUoRYB8JW3lBpe8rfljjSNpnDUvfwfnVIAxty4VObFoFWLBV3v3/TtDtgHHjsQbQeduwEHUMZuTk64aDY/iOsJgMOz2jR70N5lseKzInGISGqKBYj3nfwHeywNs9ZaXRxnCW3tApVMiNxa2gXd6Vz1pgqHRjR4ph1N/VCrXshD4Ojczi8ez9sEDbGGW0QZeFc6FUU+qVV/Yl1TW93A5nT+mKmdJdlWqEZWXEqhWhoeoDf2S6Ay2rlTIY7Wy7BLYYhzUfQ4e7CkotFKuRGYbo39vFUvDuKOP6tXb4oY4QsW7CkN1VcuhgZjjOSKKMABWwTbc4MsBNGV3tDNC+DnhkIT6g2yBv8u7/97JmYGeiKsUE2F111W+411CW0LAwVsX3joVwGPLJsPs1nbJPbb/ojnbppoZ7Pvtxk2F3vubSP6TKHNBvxGqrEpcG2uN0KF+BTtm3R5ggjrXA0JbsS2rLu4Faru33Bfx3FDaN92q5jk3lshQ0lZ7PX3HpD2jhDWfSnfoIfFRIqpmm3k7NlBgp2GpNV9Cvi1gDRe2yr6iVllS1LczGMAtqUTT5qt4WbrSDTYOOOKn4BZf+iCXrgZsuXaGDD46VOhrPOJkQ62DogZjifb0DcpTsPG4miCzLj83f79Fea0QvOwX9hH+K6jUZdK5a6OQlFg/CM1Epnw1D8dCXlxJ/ppVEooMW9VITNS8rjrJk1hJ0L7+fLBq6lByY+pFXca/pE3zelo9YIG/B1t4Wq6CkU2o0qTYOSqUBxZrQrBWPQplF39b8UUzf/Zl439b3qYOyAkZFszNnXNVTXmI9MQsK0tti6UbK+WPEzu0MVeI+Dd86xFl0IhbI8vuXevyZTBIn4OTAOJ2gob9kzxirx7zEmuJgekmVr5RR4sMwD0zNlKrICusi3am9gMem0XekxJqzN68iqA5/pkMieElx1HevzjByEstiw4zTCn3Sa8vi47Ch8XQIT8cbGKbMKXlZ5S+dfmvWDDOhRb/VbfIQw7FWc4s3Lpqz1tSAhQXOgp/KPZ/X7DW94AOmqru7VGZQU27ThKNaykks4bRSYak2hmM0KuuZMqBUM3DASjzOQtfvsFnyFYlYhwsPR+ThcMUeuUursuqsN2QTC1rbw2G9tZxHthkOJ8xad9Gqp2y9GYL3sB22hmwdyIXhgVq5tk+BpzJUCW7w1XFeYnWzTksvxdU9nPEyhUFhWqJRO0EvFWTFYhlzDNt6wSxpyROIUm1nzRfNxDDcbIUkS/lhhmLJPNawgrIYfjhYtTVO7l4pq+rAxQGIP9dtj938xOJ1Fj9xWhghRNJV3JtaV92AfQ3jCX0AkK77yduLYMLwu5xoyYeHFk8PwesWl7M65y4yjPr7jIv1xF9Wo0lhkxRejVLDH6gYYL1hWTmKBawKpyR4wDznGoql7pIRGYjVxqkILatsZqsz8rYbwHeX9GOTq1bRykJtxJBEsYaT+LJcLG5lThyvTW9Sgt1VGUC9cuuzzuouN7GG2MXEgMJwKhiF9s3KBU6P1zOcKnir6XUdOT0FzuKD1prPjuzy1FyK++ViVWODFMOQj7sFm4daz1/Vx3AmeT0bDvS8ZkP+e05TwUMYTnFlGpFsiZI+7DB3bGDwmb6trFjb6FXvAGIDU3XNGPdNQqx4xf+QiNXtRVhQxBkmwdcxRXWz/S2hcecmFh+HqZoW/pBtMSrRfm72O4iM0IAzGNmVioxYzfhgmOQ+XT7guFjdyD85LBLLyRQvXH2UOmrrI0PTsuUYXzVzFGvODEhMCE0LjpooG5+0W7EqPkBjJ2bQFHK6YrqIg9VDCzZhfCHySD4bxqHsLBYLNpHyczTFBk/9Yoo6mreaKceM1UFuuSEE82Gq8qCg2Y80rZx4+rRpncDGWxcTnuOFYzEjFlS3gSXM0RfOt9ElvHAIzlkfvbgzk+VYLC/08GL9w1C0UfxVtoJpAyaD5+T78QfMreogWE8yrryMXqPTaGOIo73eS1O2xV6j+XzF9+IGqfE6I5ZxYa3lsrnho8vaPjQ9b9kTq7E9Nmw5aFJMltnKScTieyam3rIbFF4buuqG425cUEf871UdnIIr2L5a500l/WyXEr5DpIge/u5JTVQ3wQnHSul447WkAgpptKqrarfpWX0W3G3zpozVr04mq54IA4xmdTO5zIPv6z8NeeNiyXfzrltg9cJQwZpd5MlTmO+MMb4anF+Kx1q5EqaJo0JZOb7450FZvRb0NnasrJUTnr9Wniy8qBVvnNF8vqlPHuL9dZK1+ujNHXRSs9WFfXanpDWLPvGDNcexe9wPBnvfjD270fD3g8Lg6I6hVEAf1jEbaT7Zid9jiDd9DExL8XlChzjgP5s362SYE9o8DTFN0z3z3WyfrvXFKWXv0zpHGFf345O+EJ6dlYKl0z0vcTE2t9B5SIV0qbQgVikaaq2uq2Ud/Yqz+YUVixnrWY6zaP3GPri8Fyu7eNumyk3HgN5ElFcaGt+OdSNWEWzX57u98YTl9peWwqaPODMc5t7/fAffiMPWPEHVpA5MedTTOZ01ST/DjVj1ZAAsH9mv7r81HCdv4/g9pjzZK+EE7WEis6s/8woJ95u72xXYfqvf7z1duFf7H5Zy/lKG7MLn8al4zsQojce89ja7EQvztkn48NOqeYcPWMTgFHiZrxkvEwRRkdE8sBuxdBvYcOF53j0LJWjyp8E86G/EA2KrB8a2h1vL6jh3tpv7fcLnVB2vN9xMqk0cclkHL0mplVUiyyuxBl+1GeQf4HKzHwlj0v4vB97/OisW7sUKqbgYgN+9b3+HOTPS29l4mDXffvyx+2TIHCNdLMUwazP5+GP3yQyj+XSJhodZd/WYwGdo3mwLVIDCrHfhO2yKSWVZPCZAkcM7eOwp/TCiZooFWeJNeOEm2UcjFcBgd7bz/TM8MA/aQfAgKTUbWpTsvE+XV7lcVVE0vWDyhb2HvHv0B+MwvinIbphiZ1mPUa7zIzzGNkG1fNE93ON/EfIplgfGHh6rF77IQCHWh/RFvf3S+ouXY74Tw6HgiiAIgiAIgiAIgiAIgiAIgiAIgiAIgiAIgiAIgiAIgiAIgiAIgiAIgiAIgiB+kv8A/2LV37CDSqkAAAAASUVORK5CYII=;" parent="1" vertex="1">
          <mxGeometry x="1195.71" y="380" width="78.58" height="44" as="geometry" />
        </mxCell>
        <mxCell id="a-xLIc6W0OkfMX9vDNtI-17" value="" style="endArrow=classic;html=1;rounded=0;exitX=1;exitY=0.5;exitDx=0;exitDy=0;entryX=0;entryY=0.5;entryDx=0;entryDy=0;startArrow=block;startFill=1;" parent="1" source="a-xLIc6W0OkfMX9vDNtI-2" target="a-xLIc6W0OkfMX9vDNtI-8" edge="1">
          <mxGeometry width="50" height="50" relative="1" as="geometry">
            <mxPoint x="630" y="490" as="sourcePoint" />
            <mxPoint x="680" y="440" as="targetPoint" />
          </mxGeometry>
        </mxCell>
        <mxCell id="a-xLIc6W0OkfMX9vDNtI-18" value="&lt;b&gt;Comunica via HTTP/HTTPS&lt;/b&gt;&lt;div&gt;&lt;b&gt;[JSON/HTTPS]&lt;/b&gt;&lt;/div&gt;" style="edgeLabel;html=1;align=center;verticalAlign=middle;resizable=0;points=[];" parent="a-xLIc6W0OkfMX9vDNtI-17" vertex="1" connectable="0">
          <mxGeometry x="0.2869" y="1" relative="1" as="geometry">
            <mxPoint x="-26" y="-24" as="offset" />
          </mxGeometry>
        </mxCell>
        <mxCell id="a-xLIc6W0OkfMX9vDNtI-19" value="" style="endArrow=classic;html=1;rounded=0;exitX=1;exitY=0.5;exitDx=0;exitDy=0;entryX=0;entryY=0.5;entryDx=0;entryDy=0;startArrow=block;startFill=1;" parent="1" source="a-xLIc6W0OkfMX9vDNtI-8" target="a-xLIc6W0OkfMX9vDNtI-13" edge="1">
          <mxGeometry width="50" height="50" relative="1" as="geometry">
            <mxPoint x="965" y="380" as="sourcePoint" />
            <mxPoint x="1205" y="380" as="targetPoint" />
          </mxGeometry>
        </mxCell>
        <mxCell id="a-xLIc6W0OkfMX9vDNtI-20" value="&lt;b&gt;Operações CRUD [SQL]&lt;/b&gt;" style="edgeLabel;html=1;align=center;verticalAlign=middle;resizable=0;points=[];" parent="a-xLIc6W0OkfMX9vDNtI-19" vertex="1" connectable="0">
          <mxGeometry x="0.2869" y="1" relative="1" as="geometry">
            <mxPoint x="-27" y="-14" as="offset" />
          </mxGeometry>
        </mxCell>
        <mxCell id="WQMawnzFdSV_sVf2YCUK-3" value="&lt;b&gt;Autenticação JWT&lt;/b&gt;" style="edgeLabel;html=1;align=center;verticalAlign=middle;resizable=0;points=[];" parent="1" vertex="1" connectable="0">
          <mxGeometry x="610" y="390" as="geometry">
            <mxPoint y="-2" as="offset" />
          </mxGeometry>
        </mxCell>
        <mxCell id="WQMawnzFdSV_sVf2YCUK-4" value="" style="group" parent="1" vertex="1" connectable="0">
          <mxGeometry x="270" y="590" width="260" height="190" as="geometry" />
        </mxCell>
        <mxCell id="WQMawnzFdSV_sVf2YCUK-1" value="&lt;b&gt;Servidor da Aplicação Web&lt;/b&gt;&lt;div&gt;[Nginx]&lt;/div&gt;&lt;div&gt;&lt;br&gt;&lt;br&gt;&lt;div&gt;&lt;br&gt;&lt;div&gt;&lt;br&gt;&lt;/div&gt;&lt;div&gt;&lt;br&gt;&lt;/div&gt;&lt;div&gt;&lt;br&gt;&lt;/div&gt;&lt;div&gt;&lt;br&gt;&lt;/div&gt;&lt;div&gt;&lt;br&gt;&lt;/div&gt;&lt;div&gt;&lt;br&gt;&lt;/div&gt;&lt;div&gt;&lt;b&gt;Serve HTML, CSS e JavaScript&lt;/b&gt;&lt;/div&gt;&lt;/div&gt;&lt;/div&gt;" style="html=1;whiteSpace=wrap;" parent="WQMawnzFdSV_sVf2YCUK-4" vertex="1">
          <mxGeometry width="260" height="190" as="geometry" />
        </mxCell>
        <mxCell id="WQMawnzFdSV_sVf2YCUK-2" value="" style="shape=image;verticalLabelPosition=bottom;labelBackgroundColor=default;verticalAlign=top;aspect=fixed;imageAspect=0;image=data:image/svg+xml,PHN2ZyB4bWxucz0iaHR0cDovL3d3dy53My5vcmcvMjAwMC9zdmciIHZpZXdCb3g9IjAgMCAzMiAzMiIgaGVpZ2h0PSI4MDBweCIgd2lkdGg9IjgwMHB4Ij48dGl0bGU+ZmlsZV90eXBlX25naW54PC90aXRsZT48cGF0aCBzdHlsZT0iZmlsbDojMDE5NjM5IiBkPSJNMTUuOTQ4LDJoLjA2NWExMC40MTgsMTAuNDE4LDAsMCwxLC45NzIuNTI4UTIyLjQxNCw1LjY1LDI3Ljg0Myw4Ljc3NGEuNzkyLjc5MiwwLDAsMSwuNDE0Ljc4OGMtLjAwOCw0LjM4OSwwLDguNzc3LS4wMDUsMTMuMTY0YS44MTMuODEzLDAsMCwxLS4zNTYuNTA3cS01Ljc3MywzLjMyNC0xMS41NDcsNi42NDRhLjU4Ny41ODcsMCwwLDEtLjY1Ny4wMzdROS45MTIsMjYuNiw0LjE0MywyMy4yNzRhLjcuNywwLDAsMS0uNC0uNjY2cTAtNi41ODIsMC0xMy4xNjNhLjY5My42OTMsMCwwLDEsLjM4Ny0uNjdROS41NTIsNS42NTcsMTQuOTc0LDIuNTM1Yy4zMjItLjE4NC42MzgtLjM3OS45NzQtLjUzNSIvPjxwYXRoIHN0eWxlPSJmaWxsOiNmZmYiIGQ9Ik04Ljc2NywxMC41MzhxMCw1LjQyOSwwLDEwLjg1OWExLjUwOSwxLjUwOSwwLDAsMCwuNDI3LDEuMDg3LDEuNjQ3LDEuNjQ3LDAsMCwwLDIuMDYuMjA2LDEuNTY0LDEuNTY0LDAsMCwwLC42ODUtMS4yOTNjMC0yLjYyLS4wMDUtNS4yNCwwLTcuODZxMy41ODMsNC4yOSw3LjE4MSw4LjU2OGEyLjgzMywyLjgzMywwLDAsMCwyLjYuNzgyLDEuNTYxLDEuNTYxLDAsMCwwLDEuMjUxLTEuMzcxcS4wMDgtNS41NDEsMC0xMS4wODFhMS41ODIsMS41ODIsMCwwLDAtMy4xNTIsMGMwLDIuNjYyLS4wMTYsNS4zMjEsMCw3Ljk4Mi0yLjM0Ni0yLjc2Ni00LjY2My01LjU1Ni03LTguMzMyQTIuODE3LDIuODE3LDAsMCwwLDEwLjE3LDkuMDMzLDEuNTc5LDEuNTc5LDAsMCwwLDguNzY3LDEwLjUzOFoiLz48L3N2Zz4=;" parent="WQMawnzFdSV_sVf2YCUK-4" vertex="1">
          <mxGeometry x="80" y="45" width="100" height="100" as="geometry" />
        </mxCell>
        <mxCell id="WQMawnzFdSV_sVf2YCUK-5" style="edgeStyle=orthogonalEdgeStyle;rounded=0;orthogonalLoop=1;jettySize=auto;html=1;entryX=0.5;entryY=1;entryDx=0;entryDy=0;" parent="1" source="WQMawnzFdSV_sVf2YCUK-1" target="a-xLIc6W0OkfMX9vDNtI-2" edge="1">
          <mxGeometry relative="1" as="geometry" />
        </mxCell>
        <mxCell id="WQMawnzFdSV_sVf2YCUK-6" value="HTTP/HTTPS" style="edgeLabel;html=1;align=center;verticalAlign=middle;resizable=0;points=[];fontStyle=1;fontSize=13;" parent="WQMawnzFdSV_sVf2YCUK-5" vertex="1" connectable="0">
          <mxGeometry x="-0.0923" y="1" relative="1" as="geometry">
            <mxPoint as="offset" />
          </mxGeometry>
        </mxCell>
      </root>
    </mxGraphModel>
  </diagram>
</mxfile>
